<svg width="1440" height="1024" viewBox="0 0 1440 1024" fill="none" xmlns="http://www.w3.org/2000/svg">
<symbol id="fu">
<rect width="1440" height="1024" fill="white"/>
<path d="M367.773 198.55C367.773 224.35 358.465 252.719 352.244 277.451C333.807 350.75 313.526 421.764 279.716 489.739C258.253 532.891 238.977 575.704 220.742 620.253C210.31 645.742 202.807 672.727 191.659 697.808" stroke="black" stroke-width="3" stroke-linecap="round"/>
<path d="M367.773 206.629C384.144 206.629 400.645 208.597 416.963 209.501C506.559 214.464 596.312 219.555 686.07 219.555" stroke="black" stroke-width="3" stroke-linecap="round"/>
<path d="M301.528 395.668C341.864 395.668 381.883 397.182 422.438 394.771C481.321 391.269 540.011 385.511 599 383.73C655.47 382.024 712.195 384.957 768.472 379.511" stroke="black" stroke-width="3" stroke-linecap="round"/>
<path d="M957.511 203.397C956.522 208.012 954.009 212.507 952.305 216.862C944.219 237.525 935.794 258.008 927.351 278.528C900.77 343.13 875.782 409.083 854.823 475.736C836.722 533.299 822.302 599.331 837.589 659.3C843.126 681.025 857.967 718.735 882.47 726.532C885.493 727.494 888.858 723.862 890.728 722.223C900.872 713.332 910.792 704.08 920.708 694.935C957.391 661.106 988.632 620.22 1015.68 578.424C1050.62 524.424 1071.35 466.79 1079.95 403.118C1086 358.274 1084.62 313.111 1086.77 268.026" stroke="black" stroke-width="3" stroke-linecap="round"/>
<symbol>
</svg>
